<svg width="43" height="18" viewBox="0 0 43 18" fill="none" xmlns="http://www.w3.org/2000/svg">
<path d="M1.60156 11.1641C1.52344 11.0859 1.44141 11.0039 1.35547 10.918C1.27734 10.832 1.20312 10.7383 1.13281 10.6367C1.0625 10.5352 1.00391 10.4297 0.957031 10.3203C0.917969 10.2109 0.898438 10.0938 0.898438 9.96875C0.898438 9.74219 0.96875 9.53906 1.10938 9.35938C1.25 9.17188 1.42188 8.97656 1.625 8.77344L5.30469 5.11719C5.48438 4.9375 5.66797 4.77734 5.85547 4.63672C6.05078 4.48828 6.26562 4.41406 6.5 4.41406C6.65625 4.41406 6.81641 4.45703 6.98047 4.54297C7.14453 4.62891 7.32031 4.76562 7.50781 4.95312C7.6875 5.13281 7.8125 5.30078 7.88281 5.45703C7.96094 5.60547 8 5.75781 8 5.91406C8 6.14844 7.92969 6.36719 7.78906 6.57031C7.65625 6.76562 7.5 6.95312 7.32031 7.13281L4.4375 9.99219L7.29688 12.8047C7.48438 12.9922 7.64844 13.1836 7.78906 13.3789C7.92969 13.5664 8 13.7734 8 14C8 14.1562 7.96094 14.3164 7.88281 14.4805C7.80469 14.6445 7.66406 14.8281 7.46094 15.0312C7.28125 15.2109 7.11328 15.3398 6.95703 15.418C6.80859 15.4883 6.65625 15.5234 6.5 15.5234C6.27344 15.5234 6.05859 15.4531 5.85547 15.3125C5.66016 15.1719 5.46875 15.0078 5.28125 14.8203L1.60156 11.1641ZM16.1797 17.0938C15.3203 17.0938 14.5781 16.9961 13.9531 16.8008C13.3359 16.6055 12.8125 16.3516 12.3828 16.0391C11.9609 15.7266 11.6211 15.375 11.3633 14.9844C11.1055 14.5859 10.9062 14.1836 10.7656 13.7773C10.6328 13.3711 10.543 12.9805 10.4961 12.6055C10.457 12.2305 10.4375 11.9062 10.4375 11.6328C10.4375 11.5156 10.4453 11.375 10.4609 11.2109C10.4844 11.0391 10.5547 10.875 10.6719 10.7188C10.7891 10.5625 10.9727 10.4297 11.2227 10.3203C11.4805 10.2109 11.8438 10.1562 12.3125 10.1562C12.4688 10.1562 12.6641 10.168 12.8984 10.1914C13.1328 10.207 13.3594 10.2578 13.5781 10.3438C13.7969 10.4219 13.9844 10.5391 14.1406 10.6953C14.2969 10.8516 14.375 11.0625 14.375 11.3281C14.375 11.75 14.3984 12.1289 14.4453 12.4648C14.5 12.8008 14.5938 13.0859 14.7266 13.3203C14.8594 13.5547 15.043 13.7344 15.2773 13.8594C15.5117 13.9844 15.8125 14.0469 16.1797 14.0469C16.5625 14.0469 16.8555 13.9688 17.0586 13.8125C17.2695 13.6562 17.4219 13.4805 17.5156 13.2852C17.625 13.0664 17.6875 12.8125 17.7031 12.5234V3.92188H14.6328C14.3203 3.92188 14.0078 3.90625 13.6953 3.875C13.3828 3.84375 13.0977 3.77344 12.8398 3.66406C12.5898 3.55469 12.3828 3.39062 12.2188 3.17188C12.0625 2.95312 11.9844 2.65625 11.9844 2.28125C11.9844 1.89844 12.0625 1.59375 12.2188 1.36719C12.3828 1.14063 12.5898 0.972656 12.8398 0.863281C13.0977 0.746094 13.3828 0.671875 13.6953 0.640625C14.0078 0.609375 14.3203 0.59375 14.6328 0.59375H19.4141C19.8594 0.59375 20.2109 0.671875 20.4688 0.828125C20.7344 0.984375 20.9336 1.19141 21.0664 1.44922C21.1992 1.69922 21.2852 1.98438 21.3242 2.30469C21.3633 2.625 21.3828 2.95312 21.3828 3.28906V12.1953C21.3828 13.0078 21.2656 13.6953 21.0312 14.2578C20.7969 14.8203 20.5 15.2852 20.1406 15.6523C19.7891 16.0117 19.3984 16.2891 18.9688 16.4844C18.5469 16.6797 18.1406 16.8242 17.75 16.918C17.3672 17.0039 17.0312 17.0547 16.7422 17.0703C16.4531 17.0859 16.2656 17.0938 16.1797 17.0938ZM26.8203 16.1328C26.7578 16.2656 26.6875 16.4023 26.6094 16.543C26.5391 16.6758 26.4492 16.8008 26.3398 16.918C26.2383 17.0273 26.1172 17.1172 25.9766 17.1875C25.8438 17.2656 25.6875 17.3047 25.5078 17.3047C25.3125 17.3047 25.0938 17.25 24.8516 17.1406C24.5312 17 24.3008 16.8438 24.1602 16.6719C24.0195 16.5 23.9375 16.3203 23.9141 16.1328C23.9141 15.9062 23.9375 15.7109 23.9844 15.5469C24.0391 15.3828 24.1016 15.2109 24.1719 15.0312L29.8906 1.64844C29.9453 1.52344 30.0039 1.39453 30.0664 1.26172C30.1289 1.12891 30.2031 1.01172 30.2891 0.910156C30.375 0.800781 30.4727 0.710938 30.582 0.640625C30.6992 0.5625 30.8359 0.515625 30.9922 0.5C31.1562 0.5 31.3047 0.511719 31.4375 0.535156C31.5781 0.558594 31.7266 0.601563 31.8828 0.664062C32.1875 0.796875 32.4062 0.949219 32.5391 1.12109C32.6719 1.28516 32.75 1.46094 32.7734 1.64844C32.7734 1.88281 32.7461 2.08984 32.6914 2.26953C32.6445 2.44922 32.5859 2.61719 32.5156 2.77344L26.8203 16.1328ZM38.3281 14.8203C38.1406 15.0078 37.9453 15.1719 37.7422 15.3125C37.5469 15.4531 37.3359 15.5234 37.1094 15.5234C36.9531 15.5234 36.7969 15.4883 36.6406 15.418C36.4922 15.3398 36.3281 15.2109 36.1484 15.0312C35.9453 14.8281 35.8047 14.6445 35.7266 14.4805C35.6484 14.3164 35.6094 14.1562 35.6094 14C35.6094 13.7734 35.6797 13.5664 35.8203 13.3789C35.9609 13.1836 36.125 12.9922 36.3125 12.8047L39.1719 9.99219L36.2891 7.13281C36.1094 6.95312 35.9492 6.76562 35.8086 6.57031C35.6758 6.36719 35.6094 6.14844 35.6094 5.91406C35.6094 5.75781 35.6445 5.60547 35.7148 5.45703C35.793 5.30078 35.9219 5.13281 36.1016 4.95312C36.2891 4.76562 36.4648 4.62891 36.6289 4.54297C36.793 4.45703 36.9531 4.41406 37.1094 4.41406C37.3438 4.41406 37.5547 4.48828 37.7422 4.63672C37.9375 4.77734 38.125 4.9375 38.3047 5.11719L41.9844 8.77344C42.1875 8.97656 42.3594 9.17188 42.5 9.35938C42.6406 9.53906 42.7109 9.74219 42.7109 9.96875C42.7109 10.0938 42.6875 10.2109 42.6406 10.3203C42.6016 10.4297 42.5469 10.5352 42.4766 10.6367C42.4062 10.7383 42.3281 10.832 42.2422 10.918C42.1641 11.0039 42.0859 11.0859 42.0078 11.1641L38.3281 14.8203Z" fill="#561B1A"/>
</svg>
